<?xml version="1.0" standalone="no"?>
<!DOCTYPE svg PUBLIC "-//W3C//DTD SVG 20010904//EN"
 "http://www.w3.org/TR/2001/REC-SVG-20010904/DTD/svg10.dtd">
<svg version="1.0" xmlns="http://www.w3.org/2000/svg"
 width="512.000000pt" height="512.000000pt" viewBox="0 0 512.000000 512.000000"
 preserveAspectRatio="xMidYMid meet">

<g transform="translate(0.000000,512.000000) scale(0.100000,-0.100000)"
fill="#000000" stroke="none">
<path d="M76 5096 c-77 -46 -75 -34 -76 -544 0 -385 2 -458 15 -490 11 -26
236 -258 748 -770 l732 -732 -205 -205 -204 -204 -66 63 c-82 79 -130 97 -196
71 -24 -9 -53 -28 -64 -42 -21 -27 -41 -87 -35 -106 2 -7 6 -25 10 -42 4 -20
60 -83 178 -202 l171 -173 -506 -508 c-554 -556 -545 -545 -570 -691 -24 -142
21 -282 126 -387 105 -105 245 -150 387 -126 146 25 135 16 691 570 l508 506
173 -171 c119 -118 182 -174 202 -178 17 -4 35 -8 42 -10 19 -6 79 14 106 35
14 11 33 41 43 65 25 67 9 112 -72 195 l-63 66 204 204 205 205 205 -205 204
-204 -63 -66 c-81 -83 -97 -128 -72 -195 10 -24 29 -54 43 -65 27 -21 87 -41
106 -35 7 2 25 6 42 10 20 4 83 60 202 178 l173 171 508 -506 c556 -554 545
-545 691 -570 187 -32 376 62 464 230 49 93 65 187 49 282 -25 146 -24 145
-575 697 l-501 503 165 167 c92 93 172 179 179 191 17 33 15 104 -5 141 -17
35 -63 67 -107 76 -47 11 -99 -15 -168 -81 l-66 -63 -204 204 -205 205 732
732 c512 512 737 744 748 770 13 32 15 105 15 488 0 432 -1 452 -20 490 -13
26 -34 47 -60 60 -38 19 -58 20 -490 20 -383 0 -456 -2 -488 -15 -26 -11 -258
-236 -769 -748 l-733 -732 -732 732 c-512 512 -744 737 -770 748 -32 13 -105
15 -490 15 l-453 0 -39 -24z m2301 -1718 l1443 -1443 -317 -317 -318 -318
-1442 1442 -1443 1443 0 317 0 318 317 0 318 0 1442 -1442z m2443 1124 l0
-317 -705 -705 -705 -705 -317 318 -318 317 705 705 705 705 317 0 318 0 0
-318z m-2790 -2477 l315 -315 -205 -205 -205 -205 -317 317 -318 318 202 202
c112 112 205 203 208 203 3 0 147 -142 320 -315z m-625 -835 l-105 -105 -107
107 -108 108 105 105 105 105 107 -107 108 -108 -105 -105z m2523 3 l-108
-108 -105 105 -105 105 107 107 108 108 105 -105 105 -105 -107 -107z m-2946
-210 c54 -54 98 -102 98 -108 0 -5 -46 -56 -102 -112 l-103 -103 -107 107
-108 108 102 102 c57 57 107 103 113 103 5 0 54 -44 107 -97z m3376 -6 l102
-102 -108 -108 -107 -107 -103 103 c-56 56 -102 107 -102 112 0 13 192 205
205 205 6 0 56 -46 113 -103z m-3798 -422 l104 -105 -54 -56 c-92 -93 -153
-113 -230 -74 -69 35 -99 124 -64 193 15 30 122 147 134 147 3 0 52 -47 110
-105z m4172 48 c91 -94 107 -147 68 -223 -23 -45 -80 -80 -130 -80 -45 0 -98
31 -160 94 l-54 56 104 105 c58 58 107 105 110 105 3 0 31 -26 62 -57z"/>
</g>
</svg>
