<?xml version="1.0" standalone="no"?>
<!DOCTYPE svg PUBLIC "-//W3C//DTD SVG 20010904//EN"
 "http://www.w3.org/TR/2001/REC-SVG-20010904/DTD/svg10.dtd">
<svg version="1.0" xmlns="http://www.w3.org/2000/svg"
 width="512.000000pt" height="512.000000pt" viewBox="0 0 512.000000 512.000000"
 preserveAspectRatio="xMidYMid meet">

<g transform="translate(0.000000,512.000000) scale(0.100000,-0.100000)"
fill="#000000" stroke="none">
<path d="M3882 5103 c-18 -9 -43 -30 -55 -47 -21 -29 -22 -43 -25 -223 -4
-215 3 -244 62 -286 42 -30 123 -31 162 -1 66 49 69 58 72 260 3 170 2 189
-17 228 -37 75 -125 106 -199 69z"/>
<path d="M4655 4854 c-42 -21 -272 -252 -290 -290 -59 -124 62 -253 192 -203
36 13 278 253 298 295 61 128 -75 263 -200 198z"/>
<path d="M3975 4174 c-16 -9 -90 -75 -162 -147 l-133 -131 -113 112 c-138 136
-177 157 -292 157 -117 0 -150 -19 -332 -198 l-151 -148 -95 35 c-223 83 -387
115 -634 123 -194 6 -307 -2 -463 -33 -594 -119 -1107 -509 -1384 -1053 -301
-592 -284 -1307 46 -1883 522 -913 1663 -1266 2603 -804 482 236 846 650 1014
1153 79 238 106 432 98 707 -8 246 -40 411 -123 633 l-36 95 149 152 c179 181
198 213 198 331 0 115 -21 154 -157 292 l-112 113 141 143 c151 152 163 174
149 251 -17 92 -127 144 -211 100z m-395 -599 l295 -295 -176 -177 c-97 -98
-184 -189 -193 -203 -27 -40 -20 -108 18 -191 51 -111 102 -263 128 -385 20
-96 23 -136 23 -334 0 -252 -13 -336 -81 -540 -235 -705 -927 -1181 -1669
-1147 -278 13 -528 83 -757 213 -645 364 -977 1097 -828 1822 136 656 650
1170 1315 1313 156 34 439 38 608 9 148 -25 314 -75 436 -132 94 -43 149 -50
197 -25 16 9 108 95 204 191 96 97 177 176 180 176 3 0 138 -133 300 -295z"/>
<path d="M2060 3244 c-71 -10 -206 -47 -282 -79 -154 -65 -218 -114 -454 -347
-121 -120 -227 -218 -235 -218 -22 0 -135 -56 -176 -87 -55 -42 -119 -135
-144 -210 -41 -125 -22 -281 46 -385 14 -21 25 -41 25 -44 0 -4 -22 -31 -50
-60 -46 -49 -50 -56 -50 -103 0 -90 95 -297 206 -452 74 -102 217 -244 324
-320 99 -71 267 -158 361 -187 95 -29 128 -21 211 56 l36 34 30 -21 c158 -112
396 -97 551 36 55 47 114 136 131 200 12 43 34 70 205 243 208 212 264 280
325 393 85 158 122 308 123 497 0 286 -93 523 -285 725 -203 214 -444 322
-733 330 -71 2 -146 1 -165 -1z m278 -310 c156 -32 270 -93 382 -204 87 -86
139 -167 180 -278 82 -226 52 -481 -80 -679 -18 -26 -133 -149 -255 -273 -122
-124 -227 -234 -233 -245 -5 -11 -15 -45 -21 -76 -29 -139 -169 -180 -266 -78
-72 75 -112 99 -167 99 -63 0 -79 -9 -154 -82 l-61 -60 -74 38 c-209 104 -388
282 -491 487 l-39 79 64 67 c71 73 90 117 77 176 -9 42 -16 52 -88 126 -59 61
-75 105 -62 165 14 63 68 105 150 119 42 7 60 23 285 244 245 242 301 287 423
336 131 53 290 68 430 39z"/>
<path d="M1675 2301 c-53 -32 -123 -116 -131 -156 -19 -106 77 -198 182 -175
48 11 150 110 166 162 20 68 -10 141 -72 173 -40 21 -109 19 -145 -4z"/>
<path d="M2120 1889 c-31 -12 -117 -95 -136 -131 -44 -83 10 -197 101 -214 56
-10 95 5 153 60 66 62 82 92 82 149 0 102 -105 173 -200 136z"/>
<path d="M4615 4086 c-117 -52 -124 -216 -11 -270 46 -22 379 -24 430 -2 75
31 108 148 60 212 -49 66 -58 69 -262 71 -140 2 -195 -1 -217 -11z"/>
</g>
</svg>
