<?xml version="1.0" standalone="no"?>
<!DOCTYPE svg PUBLIC "-//W3C//DTD SVG 20010904//EN"
 "http://www.w3.org/TR/2001/REC-SVG-20010904/DTD/svg10.dtd">
<svg version="1.0" xmlns="http://www.w3.org/2000/svg"
 width="512.000000pt" height="512.000000pt" viewBox="0 0 512.000000 512.000000"
 preserveAspectRatio="xMidYMid meet">

<g transform="translate(0.000000,512.000000) scale(0.100000,-0.100000)"
fill="#000000" stroke="none">
<path d="M2511 4789 c-13 -5 -40 -22 -60 -38 -145 -113 -431 -286 -666 -401
-273 -135 -541 -218 -895 -280 -211 -36 -225 -45 -240 -151 -13 -86 -12 -341
0 -514 17 -228 75 -587 103 -640 27 -51 83 -60 123 -19 30 29 30 30 -9 234
-14 74 -33 196 -42 270 -18 147 -31 619 -18 636 4 5 69 20 143 33 522 88 941
261 1442 597 l169 113 137 -93 c233 -158 488 -303 702 -396 205 -90 503 -175
770 -221 74 -13 139 -28 143 -33 13 -17 0 -487 -18 -631 -104 -866 -468 -1626
-1070 -2231 -198 -198 -439 -397 -612 -503 l-53 -33 -37 23 c-190 116 -418
303 -628 513 -364 366 -645 793 -827 1256 -33 84 -57 110 -100 110 -37 0 -78
-40 -78 -76 0 -60 185 -452 315 -668 292 -484 689 -902 1163 -1224 192 -130
191 -130 370 -10 963 649 1585 1674 1717 2833 21 184 31 568 17 664 -16 114
-33 126 -208 156 -196 33 -232 41 -379 80 -362 95 -716 264 -1088 519 -209
143 -224 150 -286 125z"/>
<path d="M2519 4392 c-9 -4 -57 -36 -108 -72 -240 -171 -554 -339 -756 -405
-137 -46 -313 -89 -447 -110 -128 -20 -153 -30 -180 -68 -20 -28 -23 -46 -26
-188 -14 -517 110 -1074 339 -1531 244 -486 615 -911 1069 -1221 140 -96 158
-97 285 -11 237 161 502 399 672 604 210 253 391 553 508 840 169 419 254 881
243 1318 -5 220 -10 226 -206 257 -237 38 -486 114 -687 209 -144 69 -384 210
-519 307 -98 71 -147 90 -187 71z m128 -224 c380 -270 762 -435 1188 -512
l120 -21 -1 -210 c-4 -475 -105 -899 -318 -1330 -215 -433 -535 -814 -926
-1102 -161 -118 -137 -113 -224 -54 -203 137 -495 407 -650 601 -182 228 -380
575 -476 835 -131 352 -192 683 -194 1050 l-1 210 100 17 c257 44 505 122 720
228 165 81 355 193 480 283 50 36 91 66 92 66 2 1 42 -27 90 -61z"/>
<path d="M2506 3458 c-15 -13 -65 -107 -117 -218 -50 -107 -94 -198 -97 -202
-4 -4 -104 -22 -222 -40 -199 -30 -217 -34 -242 -59 -34 -34 -36 -75 -6 -115
11 -16 85 -94 164 -174 l143 -145 -34 -205 c-37 -221 -41 -276 -22 -301 16
-21 51 -39 77 -39 12 0 107 47 211 105 104 58 194 105 200 105 6 0 95 -47 199
-105 104 -58 198 -105 210 -105 26 0 61 18 77 39 19 25 15 80 -22 301 l-34
205 143 145 c79 80 153 158 164 174 30 40 28 81 -5 115 -26 25 -44 29 -243 60
-118 18 -218 35 -222 39 -3 4 -47 95 -97 202 -52 111 -102 205 -117 218 -14
12 -38 22 -54 22 -16 0 -40 -10 -54 -22z m113 -361 c67 -152 94 -195 135 -212
18 -8 89 -21 157 -30 68 -9 135 -18 148 -21 22 -5 16 -14 -86 -117 -61 -62
-118 -123 -127 -137 -22 -34 -20 -95 9 -250 14 -73 25 -136 25 -141 0 -4 -53
22 -117 59 -65 37 -133 74 -151 81 -54 23 -102 8 -242 -73 -71 -41 -130 -72
-130 -67 0 4 11 68 25 142 27 147 31 209 14 242 -6 12 -63 75 -127 139 -131
132 -133 118 18 138 166 21 200 31 234 64 19 20 54 84 91 169 33 75 62 137 65
137 3 0 29 -55 59 -123z"/>
<path d="M1322 3247 c-26 -28 -27 -54 -6 -196 52 -355 180 -728 360 -1048 71
-126 215 -341 264 -393 36 -38 81 -40 115 -5 40 40 33 70 -43 172 -291 396
-469 833 -542 1326 -16 109 -23 135 -41 150 -31 25 -81 22 -107 -6z"/>
<path d="M2150 1542 c-33 -10 -60 -46 -60 -78 0 -28 14 -46 96 -128 88 -88
100 -96 134 -96 30 0 43 6 59 26 38 48 29 69 -75 174 -91 93 -120 112 -154
102z"/>
<path d="M825 2615 c-16 -15 -25 -36 -25 -55 0 -19 9 -40 25 -55 15 -16 36
-25 55 -25 19 0 40 9 55 25 50 49 15 135 -55 135 -19 0 -40 -9 -55 -25z"/>
</g>
</svg>
