<?xml version="1.0" standalone="no"?>
<!DOCTYPE svg PUBLIC "-//W3C//DTD SVG 20010904//EN"
 "http://www.w3.org/TR/2001/REC-SVG-20010904/DTD/svg10.dtd">
<svg version="1.0" xmlns="http://www.w3.org/2000/svg"
 width="512.000000pt" height="512.000000pt" viewBox="0 0 512.000000 512.000000"
 preserveAspectRatio="xMidYMid meet">

<g transform="translate(0.000000,512.000000) scale(0.100000,-0.100000)"
fill="#000000" stroke="none">
<path d="M2505 5095 c-25 -24 -25 -27 -25 -198 0 -161 2 -176 21 -201 16 -20
29 -26 59 -26 30 0 43 6 59 26 19 25 21 40 21 201 0 171 0 174 -25 198 -15 16
-36 25 -55 25 -19 0 -40 -9 -55 -25z"/>
<path d="M1716 4679 c-20 -16 -26 -29 -26 -58 0 -41 -10 -30 327 -333 31 -28
51 -38 76 -38 68 0 102 82 55 133 -43 45 -323 294 -345 305 -32 17 -57 15 -87
-9z"/>
<path d="M3315 4688 c-21 -12 -318 -277 -347 -311 -43 -47 -5 -127 60 -127 35
0 26 -7 259 203 137 123 143 131 143 167 0 62 -62 98 -115 68z"/>
<path d="M2515 4476 c-43 -18 -51 -35 -136 -258 l-74 -197 -35 -5 c-19 -3
-116 -8 -215 -12 -99 -4 -191 -11 -205 -16 -37 -14 -68 -47 -75 -79 -14 -63 6
-87 190 -234 95 -77 174 -145 174 -151 1 -7 -24 -105 -55 -219 -62 -230 -64
-257 -13 -299 22 -19 42 -26 71 -26 36 0 66 16 225 120 101 66 188 120 194
120 6 0 93 -54 193 -120 158 -104 188 -120 224 -120 29 0 49 7 71 26 51 42 49
69 -13 299 -31 114 -56 212 -55 219 0 6 79 74 174 150 184 147 204 172 190
235 -7 32 -38 65 -75 79 -14 5 -106 13 -205 16 -99 4 -196 9 -215 12 l-35 5
-74 197 c-41 108 -82 208 -90 221 -15 23 -67 51 -93 51 -7 -1 -27 -7 -43 -14z
m94 -363 c70 -187 86 -220 119 -237 20 -10 82 -18 196 -24 92 -6 169 -12 172
-14 2 -3 -55 -52 -127 -109 -130 -103 -159 -136 -159 -181 0 -13 16 -82 35
-153 20 -72 40 -145 45 -163 6 -24 5 -30 -3 -25 -7 3 -74 47 -150 96 -182 118
-173 118 -354 0 -76 -50 -143 -93 -150 -97 -8 -4 -9 2 -3 26 5 18 25 91 45
163 19 71 35 140 35 153 0 45 -29 78 -159 181 -72 57 -129 106 -127 109 3 2
80 8 172 14 114 6 176 14 196 24 33 17 49 50 119 237 24 64 46 117 49 117 3 0
25 -53 49 -117z"/>
<path d="M2400 2774 c-106 -28 -199 -82 -286 -169 -127 -127 -181 -243 -191
-416 -10 -160 31 -292 130 -426 26 -34 69 -79 96 -100 27 -21 50 -41 50 -44 1
-3 -17 -11 -39 -18 -127 -38 -348 -180 -459 -294 l-43 -45 -70 45 c-38 25 -99
58 -135 74 l-65 30 49 52 c102 108 145 214 146 362 0 79 -4 114 -22 165 -90
260 -354 407 -620 345 -260 -62 -437 -326 -393 -587 17 -101 69 -206 138 -278
l56 -59 -76 -35 c-298 -137 -507 -419 -551 -743 -6 -50 -5 -54 23 -83 l30 -30
606 0 606 0 0 -103 c0 -61 6 -123 14 -151 34 -112 127 -206 243 -245 61 -21
77 -21 920 -21 955 0 919 -2 1023 69 64 44 124 125 145 195 9 30 15 91 15 153
l0 103 606 0 606 0 30 30 c28 29 29 33 23 83 -45 324 -253 606 -552 744 l-75
34 56 59 c194 204 190 526 -8 725 -275 274 -733 169 -864 -198 -22 -60 -26
-89 -25 -172 1 -148 44 -254 146 -362 l49 -52 -65 -30 c-36 -16 -97 -49 -135
-74 l-70 -45 -43 45 c-110 113 -333 257 -456 294 -24 6 -43 15 -42 18 0 3 23
23 50 44 27 21 70 66 96 100 99 134 140 266 130 426 -10 173 -63 289 -191 417
-88 88 -178 140 -291 169 -74 19 -241 19 -315 -1z m333 -173 c125 -49 245
-174 283 -294 55 -178 11 -362 -119 -491 -190 -190 -484 -191 -673 -2 -104
104 -151 227 -141 371 3 46 14 105 27 138 48 128 171 244 303 287 85 28 236
23 320 -9z m-1509 -450 c129 -63 199 -178 200 -326 0 -66 -5 -91 -28 -142 -33
-73 -113 -154 -181 -184 -163 -72 -351 -20 -449 124 -138 205 -42 475 197 553
26 8 72 13 119 11 62 -3 89 -10 142 -36z m2978 7 c163 -75 251 -257 204 -424
-62 -218 -294 -326 -503 -234 -67 29 -146 110 -179 184 -24 51 -28 74 -28 141
1 168 96 299 257 351 65 21 181 13 249 -18z m-1375 -682 c191 -53 340 -142
479 -289 109 -115 175 -223 228 -377 40 -115 40 -115 44 -293 3 -150 1 -186
-13 -223 -19 -51 -83 -110 -134 -124 -48 -13 -1693 -13 -1741 0 -49 13 -109
66 -131 114 -29 63 -27 330 2 446 91 357 369 646 715 741 125 34 161 38 314
34 117 -3 163 -8 237 -29z m-1524 -210 c92 -31 156 -62 214 -105 l42 -30 -45
-85 c-53 -100 -97 -217 -114 -304 l-13 -62 -548 0 c-453 0 -549 2 -549 13 0 8
8 38 19 68 87 255 296 448 561 519 62 17 98 20 215 17 120 -3 151 -8 218 -31z
m2943 14 c265 -67 477 -262 565 -519 11 -30 19 -60 19 -68 0 -11 -96 -13 -549
-13 l-548 0 -13 62 c-17 87 -61 204 -114 304 l-45 84 32 24 c81 60 190 109
292 131 95 21 268 19 361 -5z"/>
</g>
</svg>
