<?xml version="1.0" standalone="no"?>
<!DOCTYPE svg PUBLIC "-//W3C//DTD SVG 20010904//EN"
 "http://www.w3.org/TR/2001/REC-SVG-20010904/DTD/svg10.dtd">
<svg version="1.0" xmlns="http://www.w3.org/2000/svg"
 width="512.000000pt" height="512.000000pt" viewBox="0 0 512.000000 512.000000"
 preserveAspectRatio="xMidYMid meet">

<g transform="translate(0.000000,512.000000) scale(0.100000,-0.100000)"
fill="#000000" stroke="none">
<path d="M2367 4904 c-161 -25 -330 -86 -461 -168 l-74 -46 -264 0 c-146 0
-290 -5 -319 -10 -78 -15 -152 -56 -207 -114 -79 -84 -112 -175 -112 -312 l0
-63 -347 -3 c-346 -3 -348 -3 -398 -27 -63 -32 -124 -92 -155 -156 l-25 -50 0
-1510 0 -1510 21 -46 c31 -67 87 -124 156 -159 l61 -30 344 0 343 0 0 -73 c0
-183 80 -320 230 -391 l65 -31 1335 0 1335 0 65 31 c149 71 230 209 230 391
l0 73 343 0 344 0 61 30 c69 35 125 92 156 159 21 46 21 48 24 1072 2 969 1
1028 -15 1048 -26 31 -73 37 -103 13 l-25 -20 -5 -1019 -5 -1018 -22 -35 c-12
-20 -40 -46 -61 -58 -39 -21 -48 -22 -366 -22 l-326 0 0 315 0 315 223 0 c256
0 267 3 267 70 0 30 -6 43 -26 59 -25 20 -39 21 -245 21 l-219 0 0 95 0 95
223 0 c237 1 247 3 266 51 11 30 -8 83 -34 93 -9 3 -115 6 -236 6 l-219 0 0
90 0 90 219 0 c216 0 220 0 247 23 34 30 36 83 3 109 -19 16 -46 18 -245 18
l-224 0 0 870 0 870 319 0 c202 0 330 -4 348 -11 40 -15 73 -48 94 -94 17 -36
19 -71 19 -372 l0 -332 26 -20 c35 -28 69 -26 100 4 l25 25 -3 358 -3 357 -36
65 c-23 43 -52 78 -85 103 -83 64 -107 67 -476 67 l-328 0 0 64 c0 137 -33
228 -112 312 -55 58 -129 99 -207 114 -29 5 -173 10 -319 10 l-265 0 -66 42
c-243 153 -562 218 -854 172z m436 -164 c307 -68 586 -280 735 -560 206 -386
166 -859 -103 -1205 -28 -36 -52 -65 -55 -65 -3 0 -18 21 -35 47 -84 134 -219
253 -370 328 l-86 42 41 28 c90 62 177 187 216 309 29 92 35 233 14 321 -54
222 -239 408 -460 459 -274 65 -569 -74 -688 -325 -22 -46 -46 -108 -52 -138
-16 -69 -16 -205 0 -273 30 -125 118 -266 214 -340 l55 -42 -84 -41 c-145 -72
-281 -190 -361 -314 -21 -34 -41 -61 -44 -60 -10 0 -90 106 -130 173 -168 277
-205 621 -100 932 133 392 491 686 905 743 97 14 283 5 388 -19z m-1177 -232
c-160 -196 -237 -341 -291 -548 -36 -140 -45 -356 -21 -505 41 -248 155 -477
328 -661 271 -286 630 -423 1025 -392 570 44 1045 484 1139 1053 23 144 15
366 -19 495 -57 220 -128 355 -294 559 l-27 33 194 -4 c209 -5 236 -10 297
-62 17 -14 42 -48 55 -74 l23 -47 0 -1910 c0 -1729 -2 -1913 -16 -1945 -24
-52 -66 -98 -113 -123 l-41 -22 -1305 0 -1305 0 -40 22 c-51 27 -89 68 -112
118 -14 33 -18 78 -21 270 -4 259 -6 265 -73 265 -56 0 -79 -34 -79 -116 l0
-64 -326 0 c-318 0 -327 1 -366 22 -21 12 -49 38 -61 58 l-22 35 -3 1455 c-2
1015 0 1466 8 1492 14 48 55 97 97 114 25 11 105 14 353 14 l320 0 0 -870 0
-870 -224 0 c-199 0 -226 -2 -245 -18 -33 -26 -31 -79 3 -109 27 -23 31 -23
247 -23 l219 0 0 -90 0 -90 -219 0 c-121 0 -227 -3 -236 -6 -26 -10 -45 -63
-34 -93 19 -48 29 -50 267 -51 l222 0 0 -95 0 -95 -219 0 c-216 0 -220 0 -247
-23 -34 -30 -36 -83 -3 -109 19 -16 46 -18 244 -18 l223 0 4 -126 c3 -118 4
-127 27 -145 30 -25 76 -24 101 1 20 20 20 33 20 1549 0 994 4 1547 10 1582
19 98 88 170 181 188 24 5 120 9 213 10 l169 1 -27 -32z m1026 -209 c214 -45
368 -234 368 -454 0 -226 -162 -415 -391 -456 -132 -23 -280 24 -385 123 -97
91 -144 201 -144 333 0 293 267 513 552 454z m50 -1083 c212 -41 391 -158 508
-333 28 -41 50 -79 50 -83 0 -17 -172 -123 -258 -160 -143 -62 -237 -82 -407
-87 -174 -6 -277 11 -432 69 -89 34 -216 104 -277 153 l-29 23 34 57 c84 141
232 263 391 322 141 53 279 66 420 39z"/>
<path d="M1436 1979 c-33 -26 -36 -79 -6 -109 20 -20 33 -20 1130 -20 1097 0
1110 0 1130 20 30 30 27 83 -6 109 -27 21 -29 21 -1124 21 -1095 0 -1097 0
-1124 -21z"/>
<path d="M1460 1663 c-53 -20 -69 -93 -29 -129 20 -18 54 -19 1131 -19 l1110
0 19 24 c26 31 25 83 -2 107 -20 18 -55 19 -1118 21 -603 1 -1103 -1 -1111 -4z"/>
<path d="M1430 1300 c-30 -30 -27 -83 6 -109 26 -20 38 -21 319 -21 281 0 293
1 319 21 33 26 36 79 6 109 -19 19 -33 20 -325 20 -292 0 -306 -1 -325 -20z"/>
</g>
</svg>
