<?xml version="1.0" standalone="no"?>
<!DOCTYPE svg PUBLIC "-//W3C//DTD SVG 20010904//EN"
 "http://www.w3.org/TR/2001/REC-SVG-20010904/DTD/svg10.dtd">
<svg version="1.0" xmlns="http://www.w3.org/2000/svg"
 width="512.000000pt" height="512.000000pt" viewBox="0 0 512.000000 512.000000"
 preserveAspectRatio="xMidYMid meet">

<g transform="translate(0.000000,512.000000) scale(0.100000,-0.100000)"
fill="#000000" stroke="none">
<path d="M2496 4988 c-18 -17 -71 -145 -191 -463 -92 -242 -180 -475 -197
-517 l-29 -77 -37 19 c-55 30 -88 26 -128 -14 -68 -68 -39 -123 106 -200 98
-52 141 -57 180 -21 10 9 94 216 186 460 93 245 171 445 174 445 3 0 81 -200
174 -445 92 -244 176 -451 186 -460 10 -9 34 -18 53 -22 32 -5 84 20 537 262
276 146 504 264 507 261 3 -3 -27 -170 -67 -370 -65 -328 -71 -368 -60 -396 7
-18 23 -37 34 -45 12 -7 199 -68 416 -135 217 -68 400 -125 407 -129 9 -5
-556 -319 -717 -400 -25 -12 -31 -12 -59 8 -58 42 -139 63 -263 68 l-118 6 0
61 c0 148 -34 248 -112 326 -119 119 -322 135 -454 34 -24 -19 -46 -34 -49
-34 -3 0 -25 16 -50 35 -118 90 -303 86 -428 -9 l-37 -28 -29 25 c-56 46 -120
70 -202 75 -94 5 -161 -13 -233 -65 l-48 -35 -27 25 c-59 56 -108 72 -216 72
-89 0 -105 -3 -150 -27 -60 -32 -124 -97 -156 -158 -22 -42 -24 -59 -27 -227
-2 -101 -7 -183 -11 -183 -5 0 -167 72 -362 159 -195 87 -414 186 -488 219
l-133 60 338 112 c187 62 354 119 372 128 66 30 66 30 27 429 -19 197 -36 372
-39 390 l-4 31 55 -25 c50 -23 57 -24 91 -11 26 9 42 25 56 51 16 34 17 42 4
75 -12 33 -28 44 -158 114 -80 43 -153 78 -163 78 -33 0 -78 -31 -92 -63 -11
-28 -7 -91 31 -467 24 -239 40 -437 36 -441 -4 -4 -206 -73 -450 -154 -421
-140 -445 -149 -463 -179 -27 -44 -24 -80 8 -115 21 -22 199 -106 679 -321
l651 -292 6 -276 c6 -312 23 -441 77 -597 65 -183 142 -299 302 -449 l101 -96
-7 -432 c-5 -287 -4 -442 3 -460 5 -14 20 -36 32 -47 23 -21 25 -21 772 -21
494 0 755 3 768 10 47 26 49 41 49 488 l0 419 40 27 c182 120 365 346 499 616
166 334 212 634 136 876 -6 19 38 45 462 273 274 148 479 264 496 282 32 35
35 71 7 116 -15 25 -32 36 -82 51 -172 52 -914 285 -917 288 -2 2 35 198 82
435 80 400 85 434 72 465 -13 33 -58 64 -92 64 -10 0 -265 -132 -568 -293
-386 -206 -552 -290 -557 -282 -4 7 -94 239 -199 516 -139 369 -197 510 -215
527 -17 15 -38 22 -64 22 -26 0 -47 -7 -64 -22z m-725 -1893 c16 -9 39 -30 49
-48 19 -30 20 -53 20 -436 l0 -403 -38 -38 c-50 -50 -96 -60 -154 -31 -24 11
-52 35 -63 53 -19 32 -19 51 -16 428 2 321 6 400 17 423 31 60 121 85 185 52z
m520 -9 c70 -48 70 -49 67 -480 -3 -370 -4 -386 -24 -412 -38 -51 -70 -68
-129 -68 -59 0 -91 17 -129 68 -20 26 -21 41 -24 414 -2 385 -2 387 20 426 44
75 148 100 219 52z m507 4 c56 -35 72 -72 72 -177 l0 -93 -103 0 c-63 0 -123
-6 -153 -15 -27 -8 -51 -15 -53 -15 -2 0 -2 49 1 109 4 121 13 145 78 189 43
29 112 30 158 2z m510 0 c62 -38 91 -121 77 -221 l-7 -49 -155 0 -155 0 4 88
c5 100 23 143 78 179 43 29 112 31 158 3z m482 -481 c71 -16 114 -50 146 -116
25 -50 29 -72 33 -165 4 -128 -9 -208 -54 -344 -101 -304 -330 -630 -541 -770
-46 -31 -91 -66 -99 -77 -13 -18 -15 -84 -15 -424 l0 -403 -614 0 -614 0 5
398 c3 219 3 414 -1 434 -6 31 -23 52 -109 126 -114 99 -181 176 -235 271 -46
83 -89 210 -106 318 l-13 84 41 -8 c59 -12 155 -9 199 6 20 7 60 28 88 47 l51
35 51 -35 c52 -36 145 -66 202 -66 104 0 225 65 289 154 l39 55 41 -22 c38
-20 58 -22 244 -25 l203 -3 -73 -73 c-130 -128 -207 -267 -242 -438 -30 -144
-18 -226 35 -254 45 -23 78 -17 115 20 30 30 34 40 34 88 1 283 220 540 557
652 62 21 83 43 90 94 4 33 1 44 -25 73 l-30 34 -411 5 -410 5 -31 30 c-38 36
-56 68 -65 118 -9 49 32 137 78 166 31 20 44 21 567 21 329 0 552 -4 580 -11z"/>
<path d="M1518 4151 c-27 -24 -33 -36 -33 -71 0 -35 6 -47 33 -71 36 -32 69
-36 112 -14 91 47 50 185 -54 185 -14 0 -40 -13 -58 -29z"/>
</g>
</svg>
